<?xml version="1.0" encoding="UTF-8" standalone="no"?>
<!DOCTYPE svg PUBLIC "-//W3C//DTD SVG 1.1//EN"
 "http://www.w3.org/Graphics/SVG/1.1/DTD/svg11.dtd">
<!-- Generated by graphviz version 2.43.0 (0)
 -->
<!-- Title: G Pages: 1 -->
<svg width="318pt" height="44pt"
 viewBox="0.00 0.00 318.00 44.00" xmlns="http://www.w3.org/2000/svg" xmlns:xlink="http://www.w3.org/1999/xlink">
<g id="graph0" class="graph" transform="scale(1 1) rotate(0) translate(4 40)">
<title>G</title>
<polygon fill="white" stroke="transparent" points="-4,4 -4,-40 314,-40 314,4 -4,4"/>
<!-- START -->
<!-- A -->
<g id="node2" class="node">
<title>A</title>
<path fill="#eeeeee" stroke="#cccccc" d="M148,-36C148,-36 118,-36 118,-36 112,-36 106,-30 106,-24 106,-24 106,-12 106,-12 106,-6 112,0 118,0 118,0 148,0 148,0 154,0 160,-6 160,-12 160,-12 160,-24 160,-24 160,-30 154,-36 148,-36"/>
<text text-anchor="middle" x="133" y="-14.9" font-family="Helvetica,sans-Serif" font-size="12.00">Cache</text>
</g>
<!-- START&#45;&gt;A -->
<g id="edge2" class="edge">
<title>START&#45;&gt;A</title>
<path fill="none" stroke="black" d="M54.24,-18C66.81,-18 82.05,-18 95.71,-18"/>
<polygon fill="black" stroke="black" points="95.76,-21.5 105.76,-18 95.76,-14.5 95.76,-21.5"/>
<text text-anchor="middle" x="80" y="-21" font-family="Helvetica,sans-Serif" font-size="10.00">res</text>
</g>
<!-- B -->
<g id="node3" class="node">
<title>B</title>
<path fill="#eeeeee" stroke="#cccccc" d="M298,-36C298,-36 230,-36 230,-36 224,-36 218,-30 218,-24 218,-24 218,-12 218,-12 218,-6 224,0 230,0 230,0 298,0 298,0 304,0 310,-6 310,-12 310,-12 310,-24 310,-24 310,-30 304,-36 298,-36"/>
<text text-anchor="middle" x="264" y="-14.9" font-family="Helvetica,sans-Serif" font-size="12.00">Final Product</text>
</g>
<!-- A&#45;&gt;B -->
<g id="edge1" class="edge">
<title>A&#45;&gt;B</title>
<path fill="none" stroke="black" d="M160.11,-18C173.82,-18 191.18,-18 207.72,-18"/>
<polygon fill="black" stroke="black" points="207.87,-21.5 217.87,-18 207.87,-14.5 207.87,-21.5"/>
<text text-anchor="middle" x="189" y="-21" font-family="Helvetica,sans-Serif" font-size="10.00">man</text>
</g>
</g>
</svg>
