<?xml version="1.0" encoding="UTF-8" standalone="no"?>
<!DOCTYPE svg PUBLIC "-//W3C//DTD SVG 1.1//EN"
 "http://www.w3.org/Graphics/SVG/1.1/DTD/svg11.dtd">
<!-- Generated by graphviz version 2.43.0 (0)
 -->
<!-- Title: G Pages: 1 -->
<svg width="214pt" height="44pt"
 viewBox="0.00 0.00 214.00 44.00" xmlns="http://www.w3.org/2000/svg" xmlns:xlink="http://www.w3.org/1999/xlink">
<g id="graph0" class="graph" transform="scale(1 1) rotate(0) translate(4 40)">
<title>G</title>
<polygon fill="white" stroke="transparent" points="-4,4 -4,-40 210,-40 210,4 -4,4"/>
<!-- START -->
<!-- B -->
<g id="node2" class="node">
<title>B</title>
<path fill="#eeeeee" stroke="#cccccc" d="M194,-36C194,-36 126,-36 126,-36 120,-36 114,-30 114,-24 114,-24 114,-12 114,-12 114,-6 120,0 126,0 126,0 194,0 194,0 200,0 206,-6 206,-12 206,-12 206,-24 206,-24 206,-30 200,-36 194,-36"/>
<text text-anchor="middle" x="160" y="-14.9" font-family="Helvetica,sans-Serif" font-size="12.00">Final Product</text>
</g>
<!-- START&#45;&gt;B -->
<g id="edge1" class="edge">
<title>START&#45;&gt;B</title>
<path fill="none" stroke="black" d="M54.19,-18C68.29,-18 86.25,-18 103.29,-18"/>
<polygon fill="black" stroke="black" points="103.75,-21.5 113.75,-18 103.75,-14.5 103.75,-21.5"/>
<text text-anchor="middle" x="84" y="-21" font-family="Helvetica,sans-Serif" font-size="10.00">code</text>
</g>
</g>
</svg>
